<?xml version="1.0" encoding="utf-8"?>
<!-- Generator: Adobe Illustrator 23.0.1, SVG Export Plug-In . SVG Version: 6.00 Build 0)  -->
<svg version="1.1" id="Layer_1" xmlns="http://www.w3.org/2000/svg" xmlns:xlink="http://www.w3.org/1999/xlink" x="0px" y="0px"
	 viewBox="0 0 169.3836823 40.5254402" style="enable-background:new 0 0 169.3836823 40.5254402;" xml:space="preserve">
<style type="text/css">
	.st0{fill:#E06D00;}
	.st1{fill:#FFFFFF;}
</style>
<rect class="st0" width="169.3836823" height="40.5254402"/>
<g>
	<path class="st1" d="M16.9112492,20.8778973v6.1425781h-2.2822266V11.8944988h2.5859375
		c1.2670898,0,2.2241211,0.0888672,2.8706055,0.2646484c0.652832,0.1767578,1.2275391,0.5097656,1.7241211,0.9990234
		c0.8686523,0.8496094,1.3027344,1.9208984,1.3027344,3.2138672c0,1.3847656-0.4638672,2.4814453-1.3911133,3.2910156
		c-0.9272461,0.8105469-2.1782227,1.2148438-3.7519531,1.2148438H16.9112492z M16.9112492,18.7616863h0.8525391
		c2.0961914,0,3.1445312-0.8056641,3.1445312-2.4189453c0-1.5615234-1.0810547-2.3417969-3.2426758-2.3417969h-0.7543945V18.7616863
		z"/>
	<path class="st1" d="M30.5875187,20.5741863l4.6826191,6.4462891h-2.7919922l-4.3203144-6.1914062h-0.4116211v6.1914062h-2.2822266
		V11.8944988h2.6743164c1.9985352,0,3.4418945,0.3759766,4.33008,1.1269531
		c0.9794922,0.8359375,1.4692383,1.9394531,1.4692383,3.3115234c0,1.0703125-0.3071289,1.9912109-0.9208984,2.7617188
		C32.4029503,19.8661785,31.5928898,20.3593426,30.5875187,20.5741863z M27.7462101,18.8407879h0.7250977
		c2.1616211,0,3.2426758-0.8261719,3.2426758-2.4785156c0-1.5478516-1.0517578-2.3222656-3.1542969-2.3222656h-0.8134766V18.8407879
		z"/>
	<path class="st1" d="M36.4454308,19.3886395c0-2.1289062,0.7802734-3.9570312,2.3413086-5.4853516
		c1.5541992-1.5283203,3.421875-2.2929688,5.6035156-2.2929688c2.1552734,0,4.003418,0.7714844,5.5449219,2.3125
		c1.5478516,1.5410156,2.3217773,3.3925781,2.3217773,5.5546875c0,2.1748047-0.7773438,4.0195312-2.331543,5.5351562
		c-1.5610352,1.5214844-3.4453125,2.2822266-5.652832,2.2822266c-1.9526367,0-3.706543-0.6757812-5.2607422-2.0283203
		C37.3008995,23.771452,36.4454308,21.8124676,36.4454308,19.3886395z M38.7476768,19.4189129
		c0,1.671875,0.5615234,3.0458984,1.6845703,4.1240234c1.1171875,1.0771484,2.4067383,1.6162109,3.8696289,1.6162109
		c1.5874023,0,2.9257812-0.5488281,4.0166016-1.6455078c1.0908203-1.1103516,1.6362305-2.4628906,1.6362305-4.0556641
		c0-1.6132812-0.5390625-2.9648438-1.6166992-4.0556641c-1.0708008-1.0976562-2.3964844-1.6464844-3.9770508-1.6464844
		c-1.5742188,0-2.9033203,0.5488281-3.9873047,1.6464844C39.289669,16.4862957,38.7476768,17.8251629,38.7476768,19.4189129z"/>
</g>
<g>
	<path d="M53.2847862,19.4569988c0-1.1240234,0.2070312-2.1699219,0.6220703-3.140625
		c0.4145508-0.96875,0.9897461-1.8154297,1.7250977-2.5371094c0.7358398-0.7226562,1.6152344-1.2880859,2.6386719-1.6953125
		c1.0229492-0.4082031,2.1499023-0.6123047,3.3803711-0.6123047c1.2172852,0,2.3408203,0.2041016,3.3706017,0.6123047
		c1.0297852,0.4072266,1.9160156,0.9726562,2.6586914,1.6953125c0.7421875,0.7216797,1.3203125,1.5683594,1.7353516,2.5371094
		c0.4140625,0.9707031,0.621582,2.0166016,0.621582,3.140625c0,1.1230469-0.2075195,2.1699219-0.621582,3.1396484
		c-0.4150391,0.9697266-0.9931641,1.8154297-1.7353516,2.5380859c-0.7426758,0.7216797-1.6289062,1.2871094-2.6586914,1.6953125
		c-1.0297813,0.4072266-2.1533165,0.6113281-3.3706017,0.6113281c-1.2304688,0-2.3574219-0.2041016-3.3803711-0.6113281
		c-1.0234375-0.4082031-1.902832-0.9736328-2.6386719-1.6953125c-0.7353516-0.7226562-1.3105469-1.5683594-1.7250977-2.5380859
		C53.4918175,21.6269207,53.2847862,20.5800457,53.2847862,19.4569988z M57.3975792,19.4569988
		c0,0.6015625,0.1137695,1.1572266,0.3413086,1.6650391c0.2270508,0.5087891,0.534668,0.9501953,0.9228516,1.3242188
		c0.3876953,0.3740234,0.8393555,0.6650391,1.3540039,0.8730469c0.5151367,0.2070312,1.0600586,0.3105469,1.6352539,0.3105469
		s1.1201172-0.1035156,1.6352539-0.3105469c0.5146484-0.2080078,0.9697227-0.4990234,1.364254-0.8730469
		s0.7055664-0.8154297,0.9331055-1.3242188c0.2270508-0.5078125,0.3408203-1.0634766,0.3408203-1.6650391
		c0-0.6025391-0.1137695-1.1572266-0.3408203-1.6660156c-0.2275391-0.5078125-0.5385742-0.9492188-0.9331055-1.3232422
		c-0.3945312-0.375-0.8496056-0.6660156-1.364254-0.8730469c-0.5151367-0.2070312-1.0600586-0.3115234-1.6352539-0.3115234
		s-1.1201172,0.1044922-1.6352539,0.3115234c-0.5146484,0.2070312-0.9663086,0.4980469-1.3540039,0.8730469
		c-0.3881836,0.3740234-0.6958008,0.8154297-0.9228516,1.3232422
		C57.5113487,18.2997723,57.3975792,18.8544598,57.3975792,19.4569988z"/>
	<path d="M81.1924973,15.2236004H76.457634v2.5273438h4.3134766v3.3310547H76.457634v5.9384766h-3.9326172V11.8925457h8.6674805
		V15.2236004z"/>
	<path d="M87.4727707,11.8925457v15.1279297h-3.9331055V11.8925457H87.4727707z"/>
	<path d="M98.9483566,15.764616c-0.4287109-0.3476562-0.8564453-0.6044922-1.2841797-0.7714844
		c-0.4287109-0.1679688-0.8427734-0.2509766-1.2441406-0.2509766c-0.5087891,0-0.9228516,0.1201172-1.2441406,0.3613281
		c-0.3203125,0.2402344-0.4814453,0.5546875-0.4814453,0.9423828c0,0.2675781,0.0800781,0.4882812,0.2412109,0.6621094
		c0.1601562,0.1738281,0.3710938,0.3242188,0.6318359,0.4511719c0.2607422,0.1279297,0.5546875,0.2382812,0.8828125,0.3310547
		c0.3271484,0.09375,0.6523438,0.1943359,0.9726562,0.3007812c1.2841797,0.4287109,2.2236328,1.0009766,2.8193359,1.7158203
		c0.5947266,0.7158203,0.8925781,1.6484375,0.8925781,2.7988281c0,0.7763672-0.1298828,1.4785156-0.3916016,2.1064453
		c-0.2607422,0.6289062-0.6416016,1.1669922-1.1435547,1.6152344c-0.5009766,0.4482422-1.1162109,0.7958984-1.8457031,1.0429688
		c-0.7285156,0.2480469-1.5546875,0.3710938-2.4775391,0.3710938c-1.9130859,0-3.6845703-0.5683594-5.3164062-1.7050781
		l1.6855469-3.1699219c0.5878906,0.5214844,1.1699219,0.9101562,1.7451172,1.1640625s1.1435547,0.3808594,1.7050781,0.3808594
		c0.6425781,0,1.1201172-0.1474609,1.4345703-0.4414062s0.4716797-0.6289062,0.4716797-1.0029297
		c0-0.2275391-0.0400391-0.4248047-0.1201172-0.5917969c-0.0810547-0.1669922-0.2148438-0.3212891-0.4013672-0.4619141
		c-0.1875-0.140625-0.4316406-0.2705078-0.7324219-0.390625c-0.3007812-0.1210938-0.6660156-0.2539062-1.09375-0.4013672
		c-0.5078125-0.1611328-1.0068359-0.3378906-1.4941406-0.5322266c-0.4892578-0.1933594-0.9228516-0.4511719-1.3046875-0.7724609
		c-0.3808594-0.3203125-0.6884766-0.7246094-0.9228516-1.2138672c-0.234375-0.4873047-0.3505859-1.1064453-0.3505859-1.8554688
		s0.1230469-1.4277344,0.3710938-2.0361328c0.2470703-0.6083984,0.5947266-1.1308594,1.0429688-1.5654297
		s0.9960938-0.7724609,1.6455078-1.0126953c0.6484375-0.2412109,1.3740234-0.3613281,2.1767578-0.3613281
		c0.7490234,0,1.53125,0.1035156,2.3466797,0.3105469c0.8164062,0.2080078,1.5986328,0.5117188,2.3476562,0.9130859
		L98.9483566,15.764616z"/>
	<path d="M107.5352707,11.8925457v15.1279297h-3.9326172V11.8925457H107.5352707z"/>
	<path d="M114.6368332,11.8925457v11.7978516h4.7148438v3.3300781h-8.6474609V11.8925457H114.6368332z"/>
	<path d="M125.3106613,11.8925457v11.7978516h4.7148514v3.3300781h-8.6474686V11.8925457H125.3106613z"/>
	<path d="M141.9425049,24.3925457h-5.6181641l-0.9023438,2.6279297h-4.1933594l5.7578125-15.1279297h4.2939453l5.7578125,15.1279297
		h-4.1933594L141.9425049,24.3925457z M140.8985596,21.4032879l-1.765625-5.0361328l-1.765625,5.0361328H140.8985596z"/>
	<path d="M157.069458,15.764616c-0.4277344-0.3476562-0.8554688-0.6044922-1.2832031-0.7714844
		c-0.4287109-0.1679688-0.8427734-0.2509766-1.2441406-0.2509766c-0.5087891,0-0.9228516,0.1201172-1.2441406,0.3613281
		c-0.3212891,0.2402344-0.4814453,0.5546875-0.4814453,0.9423828c0,0.2675781,0.0800781,0.4882812,0.2412109,0.6621094
		c0.1601562,0.1738281,0.3710938,0.3242188,0.6318359,0.4511719c0.2607422,0.1279297,0.5546875,0.2382812,0.8828125,0.3310547
		c0.3271484,0.09375,0.6513672,0.1943359,0.9726562,0.3007812c1.2841797,0.4287109,2.2236328,1.0009766,2.8193359,1.7158203
		c0.5947266,0.7158203,0.8925781,1.6484375,0.8925781,2.7988281c0,0.7763672-0.1308594,1.4785156-0.3916016,2.1064453
		c-0.2607422,0.6289062-0.6416016,1.1669922-1.1435547,1.6152344c-0.5009766,0.4482422-1.1171875,0.7958984-1.8457031,1.0429688
		c-0.7294922,0.2480469-1.5546875,0.3710938-2.4775391,0.3710938c-1.9130859,0-3.6855469-0.5683594-5.3164062-1.7050781
		l1.6845703-3.1699219c0.5888672,0.5214844,1.1708984,0.9101562,1.7460938,1.1640625
		c0.5742188,0.2539062,1.1435547,0.3808594,1.7050781,0.3808594c0.6416016,0,1.1201172-0.1474609,1.4345703-0.4414062
		s0.4716797-0.6289062,0.4716797-1.0029297c0-0.2275391-0.0400391-0.4248047-0.1210938-0.5917969
		c-0.0800781-0.1669922-0.2138672-0.3212891-0.4003906-0.4619141c-0.1875-0.140625-0.4316406-0.2705078-0.7324219-0.390625
		c-0.3017578-0.1210938-0.6660156-0.2539062-1.09375-0.4013672c-0.5087891-0.1611328-1.0068359-0.3378906-1.4951172-0.5322266
		c-0.4882812-0.1933594-0.9228516-0.4511719-1.3037109-0.7724609c-0.3808594-0.3203125-0.6894531-0.7246094-0.9228516-1.2138672
		c-0.234375-0.4873047-0.3515625-1.1064453-0.3515625-1.8554688s0.1240234-1.4277344,0.3710938-2.0361328
		c0.2480469-0.6083984,0.5957031-1.1308594,1.0439453-1.5654297s0.9960938-0.7724609,1.6445312-1.0126953
		c0.6494141-0.2412109,1.375-0.3613281,2.1777344-0.3613281c0.7480469,0,1.53125,0.1035156,2.3466797,0.3105469
		c0.8164062,0.2080078,1.5986328,0.5117188,2.3476562,0.9130859L157.069458,15.764616z"/>
</g>
</svg>
